<svg width="402" height="406" viewBox="0 0 402 406" fill="none" xmlns="http://www.w3.org/2000/svg">
<g clip-path="url(#clip0)">
<path d="M117.48 311.8C141.36 311.8 153.6 295.96 156.84 282.88L141.36 278.2C139.08 286.12 132 295.6 117.48 295.6C103.8 295.6 91.08 285.64 91.08 267.52C91.08 248.2 104.52 239.08 117.24 239.08C132 239.08 138.6 248.08 140.64 256.24L156.24 251.32C152.88 237.52 140.76 223.12 117.24 223.12C94.44 223.12 73.92 240.4 73.92 267.52C73.92 294.64 93.72 311.8 117.48 311.8ZM182.023 275.32C182.383 268.84 186.343 263.8 193.063 263.8C200.743 263.8 203.983 268.96 203.983 275.56V310H219.943V272.8C219.943 259.84 212.983 249.4 197.983 249.4C192.343 249.4 185.863 251.32 182.023 255.88V223.12H166.063V310H182.023V275.32ZM230.392 293.92C230.392 303.16 238.072 311.68 250.672 311.68C259.432 311.68 265.072 307.6 268.072 302.92C268.072 305.2 268.312 308.44 268.672 310H283.312C282.952 307.96 282.592 303.76 282.592 300.64V271.6C282.592 259.72 275.632 249.16 256.912 249.16C241.072 249.16 232.552 259.36 231.592 268.6L245.752 271.6C246.232 266.44 250.072 262 257.032 262C263.752 262 266.992 265.48 266.992 269.68C266.992 271.72 265.912 273.4 262.552 273.88L248.032 276.04C238.192 277.48 230.392 283.36 230.392 293.92ZM254.032 299.8C248.872 299.8 246.352 296.44 246.352 292.96C246.352 288.4 249.592 286.12 253.672 285.52L266.992 283.48V286.12C266.992 296.56 260.752 299.8 254.032 299.8ZM316.934 233.32H302.534V241.6C302.534 246.88 299.654 250.96 293.414 250.96H290.414V265.12H301.094V292.6C301.094 304 308.294 310.84 319.814 310.84C324.494 310.84 327.374 310 328.814 309.4V296.2C327.974 296.44 325.814 296.68 323.894 296.68C319.334 296.68 316.934 295 316.934 289.84V265.12H328.814V250.96H316.934V233.32Z" fill="#1451B5"/>
<path fill-rule="evenodd" clip-rule="evenodd" d="M200.5 23.0227C155.059 23.0227 119.023 57.9067 119.023 99.9735C119.023 115.77 124.055 130.46 132.736 142.71C134.161 144.721 134.705 147.226 134.242 149.646L128.027 182.118L164.571 171.273C166.465 170.712 168.49 170.784 170.338 171.48C179.65 174.988 189.822 176.924 200.5 176.924C245.942 176.924 281.978 142.04 281.978 99.9735C281.978 57.9067 245.942 23.0227 200.5 23.0227ZM100.917 99.9735C100.917 47.0431 145.945 4.91666 200.5 4.91666C255.056 4.91666 300.084 47.0431 300.084 99.9735C300.084 152.904 255.056 195.03 200.5 195.03C188.721 195.03 177.398 193.075 166.88 189.475L118.915 203.709C115.885 204.608 112.606 203.863 110.263 201.742C107.921 199.621 106.853 196.432 107.447 193.329L115.755 149.921C106.362 135.426 100.917 118.309 100.917 99.9735Z" fill="#1451B5"/>
<rect x="150.709" y="74.625" width="99.5833" height="19.9167" rx="9.95834" fill="#1451B5"/>
<rect x="150.709" y="114.458" width="79.6667" height="19.9167" rx="9.95833" fill="#1451B5"/>
</g>
<defs>
<clipPath id="clip0">
<rect width="402" height="406" fill="white"/>
</clipPath>
</defs>
</svg>
