<?xml version="1.0" encoding="UTF-8"?>
<svg width="48px" height="48px" viewBox="0 0 60 60" version="1.1" xmlns="http://www.w3.org/2000/svg" xmlns:xlink="http://www.w3.org/1999/xlink">
    <!-- Generator: Sketch 54.1 (76490) - https://sketchapp.com -->
    <title></title>
    <desc></desc>
    <defs>
        <path d="M39.6791773,18.029975 L20.3208226,18.029975 L18.2744113,21.0946801 C18.1124521,21.3375712 18.0260102,21.6229667 18.0259784,21.9147377 L18.0259784,25.5117402 C18.0259784,26.2920202 18.630312,26.9311505 19.3964511,26.9866029 C19.4335279,26.9838932 19.4709743,26.9825146 19.5087427,26.9825146 C19.5616769,26.9825146 19.6139785,26.9852227 19.6655167,26.9905079 L40.3344833,26.9905079 C40.3860215,26.9852227 40.4383231,26.9825146 40.4912573,26.9825146 C40.5276508,26.9825146 40.5637453,26.9837947 40.5994983,26.9863123 C41.363767,26.9289566 41.9660283,26.2906812 41.9660283,25.5117402 L41.9660399,21.9088151 C41.9671723,21.6184251 41.882781,21.3341549 41.7234311,21.0914494 L39.6791773,18.029975 Z M38.3841259,14.9925062 L36.7362725,10.0489459 C36.535111,9.4449782 35.9700017,9.03752767 35.3335554,9.03746878 L24.6665851,9.03746877 C24.0299983,9.03752767 23.464889,9.4449782 23.2636123,10.0492918 L21.6158741,14.9925062 L38.3841259,14.9925062 Z M21.0274771,30.0279767 L21.0274771,31.498751 C21.0274771,32.3375249 20.3475166,33.0174854 19.5087427,33.0174854 C18.6699689,33.0174854 17.9900083,32.3375249 17.9900083,31.498751 L17.9900083,29.7676865 C16.2407866,29.1450776 14.9885096,27.4746514 14.9885096,25.5117402 L14.9885096,21.9145722 C14.9886067,21.0229825 15.252605,20.1513691 15.7477841,19.408747 L18.1324418,15.8374836 L20.3819011,9.08910575 C20.9962591,7.24455584 22.7221333,6.00017989 24.6664446,6 L35.3336959,6.00000001 C37.2778667,6.00017989 39.0037409,7.24455584 39.6179836,9.08875983 L41.8675582,15.8374836 L44.2568011,19.4156545 C44.74718,20.1587985 45.0069577,21.0303107 45.0034971,21.9147377 L45.0034971,25.5117402 C45.0034971,27.4716602 43.7550338,29.1399859 42.0099917,29.7648329 L42.0099917,31.498751 C42.0099917,32.3375249 41.3300311,33.0174854 40.4912573,33.0174854 C39.6524834,33.0174854 38.9725229,32.3375249 38.9725229,31.498751 L38.9725229,30.0279767 L21.0274771,30.0279767 Z M48.0021887,39.3593829 C48.027121,40.0599458 47.8816453,40.7745277 47.5489964,41.4400487 L47.4923011,41.5432655 L44.7905526,46.0395187 C44.3585372,46.7584792 43.4254868,46.9910942 42.7065263,46.5590788 C41.9875658,46.1270634 41.7549508,45.1940131 42.1869662,44.4750525 L44.8525412,40.0389993 C45.1109868,39.4705476 44.9207069,38.7947172 44.3966448,38.445536 C44.1057045,38.2515048 43.7480011,38.1850724 43.406794,38.2617016 C43.0655868,38.3383308 42.7706405,38.5513371 42.5520291,38.9120584 L40.269744,42.3334876 C39.44935,43.5627696 39.0118293,45.007686 39.0124896,46.4862617 L39.0124887,52.4812658 C39.0124886,53.3200397 38.3325279,54.0000001 37.4937541,54 C36.6549802,53.9999999 35.9750198,53.3200392 35.9750199,52.4812654 L35.975021,46.4869398 C35.9740926,44.4084 36.5894292,42.3762448 37.7430583,40.6476418 L39.9865787,37.2874103 C40.5941918,36.2755725 41.5896355,35.5566765 42.7412097,35.2980528 C43.4853915,35.1309224 44.2528238,35.1654296 44.9675271,35.3873936 L44.9675271,31.7725229 C44.9675271,29.2782744 46.989515,27.2562864 49.4837635,27.2562864 C51.9780121,27.2562864 54,29.2782744 54,31.7725229 L54,42.1059167 C53.9999922,44.4925921 53.1877548,46.8082101 51.6704548,48.7040488 L47.6458087,53.4620838 C47.1041178,54.1024841 46.1458435,54.1825038 45.5054432,53.6408129 C44.865043,53.0991219 44.7850233,52.1408477 45.3267142,51.5004474 L49.3249448,46.7745229 C50.3850033,45.4493625 50.9625257,43.8028965 50.9625312,42.1059117 L50.9625312,31.7725229 C50.9625312,30.9558221 50.3004644,30.2937552 49.4837635,30.2937552 C48.6670627,30.2937552 48.0049958,30.9558221 48.0049958,31.7725229 L48.0049958,39.2662781 C48.0049958,39.2975427 48.0040511,39.3285866 48.0021887,39.3593829 Z M15.0324729,35.3982104 C15.7455801,35.1760666 16.5112303,35.1406014 17.2541056,35.3059353 C18.4055153,35.5621924 19.4018899,36.2785022 19.9743884,37.2298076 L22.2567548,40.6473617 C23.4105708,42.3762448 24.0259074,44.4084 24.0249792,46.4862612 L24.0249801,52.4812654 C24.0249802,53.3200392 23.3450198,53.9999999 22.5062459,54 C21.6674721,54.0000001 20.9875114,53.3200397 20.9875113,52.4812658 L20.9875106,46.4855831 C20.9881707,45.007686 20.55065,43.5627696 19.7305242,42.3338893 L17.4112563,38.8582321 C17.2306139,38.5590291 16.9353918,38.3467891 16.5942334,38.2708611 C16.253075,38.1949331 15.8957055,38.2619326 15.606069,38.455712 C15.0853907,38.8045771 14.8960927,39.4773803 15.1522013,40.0442372 L17.8170305,44.4790492 C18.2490459,45.1980097 18.0164309,46.1310601 17.2974704,46.5630755 C16.5785098,46.9950909 15.6454595,46.7624759 15.2134441,46.0435153 L12.5116956,41.5472622 L12.4539191,41.4418781 C12.1312548,40.7937504 11.9858694,40.0993186 12.0023633,39.4167383 C11.9974957,39.3672439 11.9950042,39.317052 11.9950042,39.2662781 L11.9950042,31.7725229 C11.9950042,30.9558221 11.3329373,30.2937552 10.5162365,30.2937552 C9.69953562,30.2937552 9.03746878,30.9558221 9.03746878,31.7725229 L9.03746878,42.1059068 C9.03747434,43.8028965 9.61499674,45.4493625 10.6486397,46.7424124 L14.6732858,51.5004474 C15.2149767,52.1408477 15.134957,53.0991219 14.4945568,53.6408129 C13.8541565,54.1825038 12.8958822,54.1024841 12.3541913,53.4620838 L8.30312961,48.6719384 C6.81224521,46.8082101 6.00000783,44.4925921 6,42.1059117 L6,31.7725229 C6,29.2782744 8.02198794,27.2562864 10.5162365,27.2562864 C13.010485,27.2562864 15.0324729,29.2782744 15.0324729,31.7725229 L15.0324729,35.3982104 Z M22.5062448,24.0249792 C21.667471,24.0249792 20.9875104,23.3450186 20.9875104,22.5062448 C20.9875104,21.667471 21.667471,20.9875104 22.5062448,20.9875104 L25.5037469,20.9875104 C26.3425207,20.9875104 27.0224813,21.667471 27.0224813,22.5062448 C27.0224813,23.3450186 26.3425207,24.0249792 25.5037469,24.0249792 L22.5062448,24.0249792 Z M34.4962531,24.0249792 C33.6574793,24.0249792 32.9775187,23.3450186 32.9775187,22.5062448 C32.9775187,21.667471 33.6574793,20.9875104 34.4962531,20.9875104 L37.4937552,20.9875104 C38.332529,20.9875104 39.0124896,21.667471 39.0124896,22.5062448 C39.0124896,23.3450186 38.332529,24.0249792 37.4937552,24.0249792 L34.4962531,24.0249792 Z" id="path-1"></path>
    </defs>
    <g id="Icon-/-Illustrative-/-HandsCar" stroke="none" stroke-width="1" fill="none" fill-rule="evenodd">
        <mask id="mask-2" fill="white">
            <use xlink:href="#path-1"></use>
        </mask>
        <use id="HandsCar" fill="#113A7D" fill-rule="nonzero" xlink:href="#path-1"></use>
    </g>
</svg>