<?xml version="1.0" encoding="UTF-8"?>
<svg width="48px" height="48px" viewBox="0 0 60 60" version="1.1" xmlns="http://www.w3.org/2000/svg" xmlns:xlink="http://www.w3.org/1999/xlink">
    <!-- Generator: Sketch 54.1 (76490) - https://sketchapp.com -->
    <title></title>
    <desc></desc>
    <defs>
        <path d="M46.0336923,48.4277588 C43.9377456,50.0168129 41.3175935,50.9599752 38.4785954,50.9599752 C31.6208603,50.9599752 26.0400639,45.4567457 26.0400639,38.6401399 C26.0400639,31.8235342 31.6208603,26.3203046 38.4785954,26.3203046 C45.3363304,26.3203046 50.9171268,31.8235342 50.9171268,38.6401399 C50.9171268,41.4380408 49.9769176,44.0146743 48.3941113,46.0803118 L53.4979069,51.1131704 C54.1521441,51.7583145 54.1692527,52.8217327 53.5361198,53.4883816 C52.902987,54.1550305 51.8593674,54.1724636 51.2051302,53.5273195 L46.0336923,48.4277588 Z M22.8202805,43.8424968 C23.4746133,43.1974534 24.5182303,43.2150469 25.1512644,43.8817932 C25.7842984,44.5485394 25.7670324,45.611955 25.1126996,46.2569985 C23.2697622,48.0737724 20.3040372,48.0737724 18.461031,46.2569307 L7.40612206,35.3576993 C6.50790175,34.4725307 6,33.2639377 6,31.9999408 C6,30.7359439 6.50790175,29.5273509 7.40574261,28.6425564 L28.9862246,7.36201916 C29.8736538,6.48748465 31.0698009,5.99944495 32.3128517,6.00000047 L43.3598091,6.00000047 C45.9609864,6.00000047 48.091161,8.10056803 48.091161,10.7197774 L48.0911603,21.6228292 C48.0900327,22.8858617 47.5818248,24.093164 46.6840226,24.9773857 C46.0293915,25.6221147 44.9857827,25.6040197 44.3530572,24.9369694 C43.7203317,24.2699191 43.7380898,23.2065119 44.392721,22.5617829 C44.6515505,22.3068685 44.79389,21.9687259 44.7942008,21.6213011 L44.7942008,10.7197774 C44.7942008,9.98106981 44.163878,9.35950775 43.3598091,9.35950775 L32.3121289,9.35950758 C31.9203622,9.35933255 31.5476858,9.51138816 31.2786221,9.77654217 L9.69813989,31.0570796 C9.43920421,31.3122528 9.29696014,31.6507339 9.29696014,31.9999408 C9.29696014,32.3491477 9.43920421,32.6876289 9.69840927,32.9430676 L20.7535189,43.8424968 C21.3183034,44.3992633 22.255496,44.3992633 22.8202805,43.8424968 Z M38.7311316,11.8802263 C38.734615,11.8802083 38.7380999,11.8801978 38.7415868,11.8801947 C39.3728026,11.8790901 39.9816334,12.1271261 40.4356953,12.5748771 C40.9008963,13.0336123 41.1647075,13.6640425 41.1629204,14.3199532 C41.1629204,15.6799438 40.0679323,16.7597127 38.7437223,16.7597127 C37.4195124,16.7597127 36.3245243,15.6799438 36.3245243,14.3199532 C36.3245243,12.9642754 37.4125787,11.8870447 38.7311331,11.8802423 C38.7339041,11.880221 38.7366768,11.8802067 38.7394511,11.8801994 C38.740163,11.8801975 38.7408749,11.880196 38.7437223,11.8801938 C39.6541527,11.8801938 40.3922024,12.6322451 40.3922024,13.5599474 C40.3922024,14.4876442 39.6541616,15.239692 38.7437387,15.239701 C39.2166301,15.2396918 39.6214844,14.8404585 39.6214844,14.3199532 C39.6214844,13.799442 39.2166207,13.4002054 38.7437223,13.4002054 C38.2708239,13.4002054 37.8659602,13.799442 37.8659665,14.315306 C37.8652685,14.5724016 37.9670307,14.8155829 38.1429186,14.9890262 C38.3081795,15.1519901 38.5251646,15.2402837 38.7479936,15.2396954 C37.8375662,15.2420991 37.0976067,14.4919989 37.0952478,13.5642997 C37.092896,12.6394274 37.8245442,11.8871999 38.7311316,11.8802263 Z M38.4785954,47.600468 C43.539222,47.600468 47.6201667,43.5762439 47.6201667,38.6401399 C47.6201667,33.704036 43.539222,29.6798119 38.4785954,29.6798119 C33.4179687,29.6798119 29.3370241,33.704036 29.3370241,38.6401399 C29.3370241,43.5762439 33.4179687,47.600468 38.4785954,47.600468 Z" id="path-1"></path>
    </defs>
    <g id="Icon-/-Illustrative-/-TagSearch" stroke="none" stroke-width="1" fill="none" fill-rule="evenodd">
        <mask id="mask-2" fill="white">
            <use xlink:href="#path-1"></use>
        </mask>
        <use id="TagSearch" fill="#113A7D" fill-rule="nonzero" xlink:href="#path-1"></use>
    </g>
</svg>