<svg width="402" height="406" viewBox="0 0 402 406" fill="none" xmlns="http://www.w3.org/2000/svg">
<path d="M158.728 240.64V224.92H88.288V240.64H115.168V310H131.848V240.64H158.728ZM166.031 273.76C166.391 268.36 170.951 262.12 179.231 262.12C188.351 262.12 192.191 267.88 192.431 273.76H166.031ZM193.991 289.12C192.071 294.4 187.991 298.12 180.551 298.12C172.631 298.12 166.031 292.48 165.671 284.68H207.911C207.911 284.44 208.151 282.04 208.151 279.76C208.151 260.8 197.231 249.16 178.991 249.16C163.871 249.16 149.951 261.4 149.951 280.24C149.951 300.16 164.231 311.8 180.431 311.8C194.951 311.8 204.311 303.28 207.311 293.08L193.991 289.12ZM210.425 310H228.425C230.465 306.76 238.385 295.12 240.545 291.88L252.905 310H271.625L250.265 279.88L270.905 250.96H252.785L241.145 268.48C239.105 265.24 231.425 254.2 229.385 250.96H210.425L231.425 280.36L210.425 310ZM300.083 233.32H285.683V241.6C285.683 246.88 282.803 250.96 276.563 250.96H273.563V265.12H284.243V292.6C284.243 304 291.443 310.84 302.963 310.84C307.643 310.84 310.523 310 311.963 309.4V296.2C311.123 296.44 308.963 296.68 307.043 296.68C302.483 296.68 300.083 295 300.083 289.84V265.12H311.963V250.96H300.083V233.32Z" fill="#1451B5"/>
<g clip-path="url(#clip0)">
<path d="M203.236 177.034C197.788 177.225 192.818 172.351 192.531 166.521C192.244 160.595 197.023 155.243 202.853 155.147C208.492 155.052 213.271 159.544 213.462 165.469C213.653 171.586 208.97 176.843 203.236 177.034Z" fill="#1451B5"/>
<path d="M335.611 47.0527C328.06 21.9167 303.879 5 275.397 5H275.301C266.221 5.19115 256.472 7.77166 247.966 12.0725C244.047 14.0796 240.415 16.3734 237.165 19.0494C212.506 19.0494 187.943 19.0494 163.284 19.0494C147.705 19.145 137.096 29.8493 137 45.5235C137 90.9214 137 136.224 137 181.621C137 197.487 147.609 208 163.666 208C189.663 208 215.66 208 241.658 208C258.479 208 268.802 197.678 268.802 180.666C268.802 160.786 268.802 141.002 268.802 121.123C279.315 122.461 289.638 121.218 299.673 117.491C328.825 106.404 344.308 76.2029 335.611 47.0527ZM253.127 180.092C253.127 188.598 250.26 191.466 241.658 191.466C215.66 191.466 189.663 191.466 163.666 191.466C155.829 191.466 152.77 188.312 152.675 180.57C152.675 135.841 152.675 91.1125 152.675 46.3837C152.675 38.8333 155.829 35.775 163.379 35.775C183.26 35.775 203.235 35.775 223.116 35.775C221.108 39.3112 219.579 43.1342 218.337 47.1483C213.845 62.2491 215.756 78.3056 223.785 92.355C224.167 92.9284 224.262 93.8842 224.167 94.5532C223.593 97.8983 222.924 101.339 222.351 104.589C221.491 108.985 220.631 113.573 219.961 118.065C219.484 121.123 220.248 123.703 222.16 125.328C223.402 126.475 225.027 127.048 226.939 127.048C227.894 127.048 228.946 126.857 230.093 126.571C232.769 125.806 235.541 124.946 238.217 124.181C243.091 122.748 248.061 121.218 253.031 119.88C253.127 139.855 253.127 159.926 253.127 180.092ZM322.325 70.7552C319.936 83.7533 311.812 94.7444 299.864 100.957C289.829 106.213 279.602 107.838 268.802 106.022C266.317 105.64 263.736 104.971 261.155 104.111C258.862 103.346 255.994 103.346 253.605 103.919C253.414 103.919 253.318 104.015 253.127 104.015C248.444 105.258 243.951 106.596 239.077 108.029C238.312 108.22 237.643 108.507 236.879 108.698C236.974 108.22 237.07 107.647 237.165 107.169C238.026 102.773 238.886 98.6629 239.459 94.4576C239.746 92.1638 239.555 89.0099 238.026 86.7161C230.284 75.056 228.755 60.911 233.82 48.0085C235.636 43.4209 238.217 39.2156 241.371 35.5838C245.863 30.4228 251.598 26.3131 258.193 23.637C260.582 22.6813 263.163 21.8211 265.743 21.2476C270.044 20.2919 274.25 19.814 278.264 19.814C291.454 19.814 302.923 25.1662 312.385 35.8705C321.083 45.428 324.619 58.2349 322.325 70.7552Z" fill="#1451B5"/>
<path d="M308.466 54.3164C308.466 59.0951 305.025 62.1535 299.768 62.1535C296.614 62.1535 293.365 62.1535 290.211 62.1535C288.012 62.1535 285.719 62.1535 283.52 62.1535H268.801C263.831 62.1535 258.957 62.1535 253.987 62.1535C253.7 62.1535 253.413 62.1535 253.031 62.1535C250.737 61.9624 248.826 61.1978 247.487 59.7641C246.054 58.3305 245.385 56.419 245.385 54.2208C245.385 49.8244 248.443 46.8616 253.031 46.3837C253.318 46.3837 253.7 46.3837 254.082 46.3837C258.957 46.3837 263.831 46.3837 268.706 46.3837C279.028 46.3837 289.446 46.3837 299.768 46.3837C302.445 46.3837 304.643 47.2439 306.172 48.7731C307.701 50.1111 308.466 52.1182 308.466 54.3164Z" fill="#1451B5"/>
<path d="M296.71 77.541C296.71 79.8348 296.041 81.8418 294.608 83.2754C293.078 84.8046 290.88 85.6648 288.299 85.6648C282.565 85.6648 276.83 85.6648 271 85.6648H268.802C263.832 85.6648 258.862 85.6648 253.987 85.6648C253.7 85.6648 253.414 85.6648 253.127 85.6648C250.929 85.4736 249.017 84.7091 247.583 83.2754C246.15 81.8418 245.385 79.8348 245.481 77.6365C245.576 73.3357 248.539 70.2773 253.127 69.895C253.414 69.895 253.7 69.895 253.891 69.895C257.906 69.895 261.824 69.895 265.839 69.895H276.066C280.08 69.895 284.19 69.895 288.204 69.895C293.174 69.9906 296.615 73.049 296.71 77.541Z" fill="#1451B5"/>
</g>
<defs>
<clipPath id="clip0">
<rect width="201" height="203" fill="white" transform="translate(137 5)"/>
</clipPath>
</defs>
</svg>
