<?xml version="1.0" encoding="utf-8"?>
<!-- Generator: Adobe Illustrator 25.2.0, SVG Export Plug-In . SVG Version: 6.00 Build 0)  -->
<svg version="1.1" id="Layer_1" xmlns="http://www.w3.org/2000/svg" xmlns:xlink="http://www.w3.org/1999/xlink" x="0px" y="0px"
	 viewBox="0 0 1920 638.4" style="enable-background:new 0 0 1920 638.4;" xml:space="preserve">
<style type="text/css">
	.st0{fill:#F9C2BA;}
	.st1{fill:#7A6A56;}
	.st2{fill:#83A5A2;}
	.st3{fill:none;stroke:#637E7C;stroke-width:2;stroke-linecap:round;stroke-linejoin:round;}
	.st4{fill:#FFFFFF;}
	.st5{fill:#0F2043;}
	.st6{fill:none;stroke:#0F2043;stroke-width:2;stroke-linecap:round;stroke-linejoin:round;}
	.st7{fill:#726F70;}
	.st8{fill:#2856A5;}
	.st9{fill:none;stroke:#F48B7E;stroke-width:2;stroke-linecap:round;stroke-linejoin:round;}
	.st10{fill:none;stroke:#544A3A;stroke-width:2;stroke-linecap:round;stroke-linejoin:round;stroke-miterlimit:10;}
</style>
<path class="st0" d="M394.9,633.2c0-300.9,243.9-544.8,544.8-544.8s544.8,243.9,544.8,544.8"/>
<path class="st1" d="M869.5,105.1c-0.2,0.5,40.1,64.7,40.1,65.3c0,0.5,0.2,1.1,0.4,1.5c0.2,0.5,0.6,0.9,1,1.2
	c0.4,0.3,0.9,0.5,1.5,0.6c23,4.1,126.9,19.6,115.3-42.8c-15.7-84.1-37.7-103.5-46.1-108c-0.4-0.2-0.9-0.3-1.4-0.4
	c-0.5,0-0.9,0-1.4,0.2c-0.4,0.2-0.9,0.4-1.2,0.7c-0.4,0.3-0.6,0.7-0.8,1.1L869.5,105.1z"/>
<path class="st1" d="M989.5,166.9l-99.1-108c-0.5-0.6-1.2-0.9-1.9-1.1c-0.7-0.1-1.5,0-2.2,0.3c-0.7,0.3-1.2,0.9-1.6,1.5
	c-0.4,0.7-0.5,1.4-0.4,2.2l32.1,213.1c0.1,0.8,0.5,1.6,1.2,2.1c0.6,0.5,1.5,0.9,2.3,0.8h77.8c0.5,0,1-0.1,1.4-0.3
	c0.4-0.2,0.9-0.5,1.2-0.9c0.3-0.4,0.6-0.8,0.7-1.3c0.2-0.5,0.2-1,0.2-1.5l-10.8-105.1C990.3,168.1,990,167.4,989.5,166.9z"/>
<path class="st2" d="M976.9,236.8c-9.8,0.1-51.3-7.5-60-6.2c-3.8,0.6-5.9-3.3,0,0c2.7,1.5,1.6-0.4,0,0
	c-142.4,37.6-98.4,268.1-94.2,296.2c0.2,1.6,19.2,40.8,20.8,40.9c0.3,0-18.6,65.3-18.3,65.4h346.2c0.7,0.2,1.5-1.2,2.2-1.4
	c0.7-0.2,1.4-0.5,2-1c0.6-0.5-0.3,0.7,0,0c0.3-0.7-3-51.7-3.1-52.5c11.6-9.1,28.1-21.3,39-29.7c6.9-5.3,9.4-14.6,6.3-22.7
	l-40.4-102.9c0-1.4-10.3-9.5-11-10.7c-61-110.6-169.4-169.2-186.7-175.1C978.8,237,977.8,236.8,976.9,236.8z"/>
<g>
	<path class="st3" d="M928.2,270.2c0,0,18.3-13.6,50.9-4.2c56,16.1,198.1,157.1,198.1,157.1"/>
</g>
<g>
	<path class="st3" d="M1172.5,578.4l-11.3,8.8c-13,10.1-31.2,10.2-44.2,0.1l-74.3-57.5l-125.8-115"/>
</g>
<path class="st4" d="M1027.2,127.3c-17.4,5.3-35.1-16.3-35.1-16.3l30.3-5.8C1024.5,112.4,1026.1,119.8,1027.2,127.3z"/>
<path class="st1" d="M1001.6,60.8l12.3,31.5l13.4-7.6c0.3-0.2,0.5-0.7,0.2-1L995.2,36"/>
<path class="st5" d="M990.5,66c2.4-0.7,5.3,2.4,6.6,6.8c1.2,4.4-1.2,3-3.6,3.7s-3.8,3.2-5-1.2C987.2,70.8,988.2,66.6,990.5,66z"/>
<path class="st6" d="M1432.9,141.3c0-8.3-6.8-15.1-15.1-15.1c-8.3,0-15.1,6.8-15.1,15.1s6.8,15.1,15.1,15.1
	C1426.2,156.4,1432.9,149.6,1432.9,141.3z"/>
<path class="st7" d="M1422.7,150.8c-0.3,0-0.7,0.2-1,0.3l-12,7.5c-0.4,0.2-0.7,0.6-0.9,1c-0.2,0.4-0.3,0.9-0.2,1.4l4.2,30.8
	c0,0.1,0,0.2,0.1,0.3l9.1,31.8c0.2,0.6,0.5,1.1,1.1,1.4c0.5,0.3,1.1,0.4,1.7,0.3l18-3.3c0.6-0.1,1.1-0.4,1.4-0.8
	c0.4-0.4,0.6-1,0.6-1.6v-30.1c0-0.1,0-0.3,0-0.4l-5.1-32.3c-0.1-0.5-0.3-0.9-0.6-1.2c-0.3-0.3-0.7-0.6-1.1-0.7l-14.4-4.3
	C1423.4,150.8,1423,150.8,1422.7,150.8z"/>
<path class="st8" d="M1422.6,106.1c0-15.5-12.6-28.1-28.1-28.1c-15.5,0-28.1,12.6-28.1,28.1s12.6,28.1,28.1,28.1
	C1410.1,134.2,1422.6,121.6,1422.6,106.1z"/>
<path class="st9" d="M1332.4,87.8l21.9,6.1"/>
<path class="st9" d="M1354.3,32.5l19.5,37.9"/>
<path class="st9" d="M1405.3,70.4v-19"/>
<path class="st5" d="M1435.6,162.9c0.2,0.3,0.4,0.7,0.4,1.2l0.6,6.5c0.1,0.6-0.1,1.3-0.5,1.8c-0.4,0.5-1,0.8-1.6,0.9l-17.2,1.9
	c-0.6,0.1-1.3-0.1-1.8-0.5c-0.5-0.4-0.8-1-0.9-1.6l-1.2-8.8c-0.1-0.5,0-0.9,0.2-1.3c0.2-0.4,0.5-0.8,0.9-1l7-4.7
	c0.3-0.2,0.8-0.4,1.2-0.4c0.4,0,0.8,0,1.2,0.2l10.7,5.1C1435,162.3,1435.3,162.6,1435.6,162.9z"/>
<path class="st5" d="M1439.3,193.8c0.1,0.6-0.1,1.3-0.6,1.8c-0.4,0.5-1,0.8-1.6,0.9l-17.2,1.8c-0.3,0-0.6,0-1-0.1
	c-0.3-0.1-0.6-0.2-0.8-0.4c-0.3-0.2-0.5-0.5-0.6-0.7c-0.2-0.3-0.2-0.6-0.3-0.9l-1.4-13.6c-0.1-0.6,0.1-1.3,0.5-1.8
	c0.4-0.5,1-0.8,1.6-0.9l7.8-1l9.5-1.1c0.3,0,0.7,0,1,0.1c0.3,0.1,0.6,0.2,0.9,0.5c0.3,0.2,0.5,0.5,0.6,0.7c0.2,0.3,0.2,0.6,0.3,0.9
	L1439.3,193.8z"/>
<path class="st1" d="M1397.7,347c0,0,10.7-36.1,37.5-47.9c0,0,27-19.5,31.7-20.9c4.6-1.4,9.9,3.4,9.9,3.4l7.2-9.7
	c0,0,4.1-32.8,11-34.9c7-2.1,4.6,65.2,4.6,65.2l-80.6,81.9L1212,529.9c-4,2.8-9.6,0.9-11.1-3.8l-30.2-100.7L1397.7,347z"/>
<path class="st10" d="M1476.7,281.5c0,0,3.2-0.4-3.9,10.4c-7.1,10.8-14.2,24.1-14.2,24.1"/>
<path class="st5" d="M981.2,23.2c-0.4-0.6-1-1-1.6-1.2C883-13.2,801.8,36,801.8,178.5c0,19.6,4.7,30.4,47.2,52
	c36.7,18.6,79,33.1,79,33.1c0.1-0.3,0.2-0.6,0.2-1L921,137.3c0-0.5-0.1-1-0.2-1.5c-0.2-0.5-0.5-0.9-0.8-1.2c-5.8-5.5-31.2-31-20-46
	c13-17.2,25.5-3.9,31.7,5.3c0.4,0.5,0.9,1,1.5,1.2c0.6,0.3,1.3,0.4,1.9,0.3c0.6-0.1,1.3-0.4,1.8-0.8c0.5-0.4,0.9-1,1.1-1.6
	c12-34.7,45.5-23.2,44-68C981.8,24.4,981.6,23.7,981.2,23.2z"/>
<line class="st3" x1="843.5" y1="567.8" x2="964.8" y2="594.8"/>
</svg>
